<svg xmlns="http://www.w3.org/2000/svg" viewBox="0 0 1600 900" preserveAspectRatio="xMidYMid slice">
<defs><linearGradient id="g" gradientTransform="rotate(86)"><stop offset="0" stop-color="#312e81"/><stop offset="1" stop-color="#f472b6"/></linearGradient></defs>
<rect width="1600" height="900" fill="url(#g)"/>
<circle cx="676" cy="300" r="90" fill="#fde68a" opacity=".85"/>
<rect x="0" y="624" width="58" height="276" fill="#0f172a"/><rect x="75" y="612" width="58" height="288" fill="#1e1b4b"/><rect x="150" y="466" width="58" height="434" fill="#0f172a"/><rect x="225" y="383" width="58" height="517" fill="#1e1b4b"/><rect x="300" y="332" width="58" height="568" fill="#0f172a"/><rect x="375" y="526" width="58" height="374" fill="#1e1b4b"/><rect x="450" y="433" width="58" height="467" fill="#0f172a"/><rect x="525" y="507" width="58" height="393" fill="#1e1b4b"/><rect x="600" y="534" width="58" height="366" fill="#0f172a"/><rect x="675" y="537" width="58" height="363" fill="#1e1b4b"/><rect x="750" y="629" width="58" height="271" fill="#0f172a"/><rect x="825" y="485" width="58" height="415" fill="#1e1b4b"/><rect x="900" y="403" width="58" height="497" fill="#0f172a"/><rect x="975" y="482" width="58" height="418" fill="#1e1b4b"/><rect x="1050" y="511" width="58" height="389" fill="#0f172a"/><rect x="1125" y="616" width="58" height="284" fill="#1e1b4b"/><rect x="1200" y="604" width="58" height="296" fill="#0f172a"/><rect x="1275" y="592" width="58" height="308" fill="#1e1b4b"/><rect x="1350" y="446" width="58" height="454" fill="#0f172a"/><rect x="1425" y="363" width="58" height="537" fill="#1e1b4b"/><rect x="1500" y="412" width="58" height="488" fill="#0f172a"/><rect x="1575" y="506" width="58" height="394" fill="#1e1b4b"/>
</svg>