<svg xmlns="http://www.w3.org/2000/svg" viewBox="0 0 1600 900" preserveAspectRatio="xMidYMid slice">
<defs><linearGradient id="g" gradientTransform="rotate(106)"><stop offset="0" stop-color="#312e81"/><stop offset="1" stop-color="#f472b6"/></linearGradient></defs>
<rect width="1600" height="900" fill="url(#g)"/>
<circle cx="1196" cy="300" r="90" fill="#fde68a" opacity=".85"/>
<rect x="0" y="640" width="58" height="260" fill="#0f172a"/><rect x="75" y="750" width="58" height="150" fill="#1e1b4b"/><rect x="150" y="795" width="58" height="105" fill="#0f172a"/><rect x="225" y="808" width="58" height="92" fill="#1e1b4b"/><rect x="300" y="674" width="58" height="226" fill="#0f172a"/><rect x="375" y="827" width="58" height="73" fill="#1e1b4b"/><rect x="450" y="844" width="58" height="56" fill="#0f172a"/><rect x="525" y="842" width="58" height="58" fill="#1e1b4b"/><rect x="600" y="701" width="58" height="199" fill="#0f172a"/><rect x="675" y="751" width="58" height="149" fill="#1e1b4b"/><rect x="750" y="736" width="58" height="164" fill="#0f172a"/><rect x="825" y="668" width="58" height="232" fill="#1e1b4b"/><rect x="900" y="754" width="58" height="146" fill="#0f172a"/><rect x="975" y="657" width="58" height="243" fill="#1e1b4b"/><rect x="1050" y="599" width="58" height="301" fill="#0f172a"/><rect x="1125" y="790" width="58" height="110" fill="#1e1b4b"/><rect x="1200" y="620" width="58" height="280" fill="#0f172a"/><rect x="1275" y="730" width="58" height="170" fill="#1e1b4b"/><rect x="1350" y="775" width="58" height="125" fill="#0f172a"/><rect x="1425" y="788" width="58" height="112" fill="#1e1b4b"/><rect x="1500" y="754" width="58" height="146" fill="#0f172a"/><rect x="1575" y="807" width="58" height="93" fill="#1e1b4b"/>
</svg>