<svg xmlns="http://www.w3.org/2000/svg" viewBox="0 0 1600 900" preserveAspectRatio="xMidYMid slice">
<defs><linearGradient id="g" gradientTransform="rotate(76)"><stop offset="0" stop-color="#312e81"/><stop offset="1" stop-color="#f472b6"/></linearGradient></defs>
<rect width="1600" height="900" fill="url(#g)"/>
<circle cx="626" cy="300" r="90" fill="#fde68a" opacity=".85"/>
<rect x="0" y="574" width="58" height="326" fill="#0f172a"/><rect x="75" y="457" width="58" height="443" fill="#1e1b4b"/><rect x="150" y="519" width="58" height="381" fill="#0f172a"/><rect x="225" y="540" width="58" height="360" fill="#1e1b4b"/><rect x="300" y="410" width="58" height="490" fill="#0f172a"/><rect x="375" y="565" width="58" height="335" fill="#1e1b4b"/><rect x="450" y="583" width="58" height="317" fill="#0f172a"/><rect x="525" y="452" width="58" height="448" fill="#1e1b4b"/><rect x="600" y="376" width="58" height="524" fill="#0f172a"/><rect x="675" y="458" width="58" height="442" fill="#1e1b4b"/><rect x="750" y="589" width="58" height="311" fill="#0f172a"/><rect x="825" y="465" width="58" height="435" fill="#1e1b4b"/><rect x="900" y="393" width="58" height="507" fill="#0f172a"/><rect x="975" y="347" width="58" height="553" fill="#1e1b4b"/><rect x="1050" y="314" width="58" height="586" fill="#0f172a"/><rect x="1125" y="387" width="58" height="513" fill="#1e1b4b"/><rect x="1200" y="554" width="58" height="346" fill="#0f172a"/><rect x="1275" y="437" width="58" height="463" fill="#1e1b4b"/><rect x="1350" y="499" width="58" height="401" fill="#0f172a"/><rect x="1425" y="520" width="58" height="380" fill="#1e1b4b"/><rect x="1500" y="490" width="58" height="410" fill="#0f172a"/><rect x="1575" y="545" width="58" height="355" fill="#1e1b4b"/>
</svg>